<svg width="1768" height="225" viewBox="0 0 1768 225" fill="none" xmlns="http://www.w3.org/2000/svg">
<g filter="url(#filter0_d_1_3)">
<mask id="path-1-outside-1_1_3" maskUnits="userSpaceOnUse" x="2" y="-1" width="1764" height="220" fill="black">
<rect fill="white" x="2" y="-1" width="1764" height="220"/>
<path d="M214.127 126.109C214.127 138.902 211.881 150.67 207.389 161.412C202.994 172.154 196.891 181.432 189.078 189.244C181.266 196.959 171.988 203.014 161.246 207.408C150.504 211.803 138.834 214 126.236 214H23.4043C20.6699 214 18.1309 213.512 15.7871 212.535C13.4434 211.559 11.3926 210.24 9.63477 208.58C7.97461 206.822 6.65625 204.771 5.67969 202.428C4.70312 200.084 4.21484 197.545 4.21484 194.811V23.1309C4.21484 20.4941 4.70312 18.0039 5.67969 15.6602C6.65625 13.3164 7.97461 11.2656 9.63477 9.50781C11.3926 7.75 13.4434 6.38281 15.7871 5.40625C18.1309 4.42969 20.6699 3.94141 23.4043 3.94141H126.236C138.834 3.94141 150.504 6.13867 161.246 10.5332C171.988 14.9277 181.266 21.0312 189.078 28.8438C196.891 36.5586 202.994 45.8359 207.389 56.6758C211.881 67.418 214.127 79.1367 214.127 91.832V126.109ZM176.041 91.832C176.041 84.4102 174.82 77.623 172.379 71.4707C170.035 65.3184 166.666 60.0938 162.271 55.7969C157.877 51.4023 152.604 48.0332 146.451 45.6895C140.396 43.248 133.658 42.0273 126.236 42.0273H42.3008V175.914H126.236C133.658 175.914 140.396 174.742 146.451 172.398C152.604 169.957 157.877 166.588 162.271 162.291C166.666 157.896 170.035 152.672 172.379 146.617C174.82 140.465 176.041 133.629 176.041 126.109V91.832ZM457.584 214H419.498V162.438H285.611V214H247.525V108.971C247.525 93.6387 250.162 79.5273 255.436 66.6367C260.709 53.7461 268.033 42.6621 277.408 33.3848C286.783 24.1074 297.867 16.8809 310.66 11.7051C323.453 6.5293 337.418 3.94141 352.555 3.94141H438.395C441.031 3.94141 443.521 4.42969 445.865 5.40625C448.209 6.38281 450.26 7.75 452.018 9.50781C453.775 11.2656 455.143 13.3164 456.119 15.6602C457.096 18.0039 457.584 20.4941 457.584 23.1309V214ZM285.611 124.352H419.498V42.0273H352.555C351.383 42.0273 348.893 42.2227 345.084 42.6133C341.373 42.9062 337.027 43.7363 332.047 45.1035C327.164 46.4707 321.988 48.5703 316.52 51.4023C311.051 54.2344 306.021 58.1406 301.432 63.1211C296.842 68.1016 293.033 74.3516 290.006 81.8711C287.076 89.293 285.611 98.3262 285.611 108.971V124.352ZM722.428 129.039C722.428 141.832 720.23 153.6 715.836 164.342C711.441 175.084 705.338 184.361 697.525 192.174C689.713 199.986 680.436 206.09 669.693 210.484C659.049 214.781 647.428 216.93 634.83 216.93H583.268C570.67 216.93 559 214.781 548.258 210.484C537.516 206.09 528.238 199.986 520.426 192.174C512.613 184.361 506.461 175.084 501.969 164.342C497.574 153.6 495.377 141.832 495.377 129.039V88.9023C495.377 76.207 497.574 64.4883 501.969 53.7461C506.461 42.9062 512.613 33.6289 520.426 25.9141C528.238 18.1016 537.516 11.998 548.258 7.60352C559 3.20898 570.67 1.01172 583.268 1.01172H634.83C647.428 1.01172 659.049 3.20898 669.693 7.60352C680.436 11.998 689.713 18.1016 697.525 25.9141C705.338 33.6289 711.441 42.9062 715.836 53.7461C720.23 64.4883 722.428 76.207 722.428 88.9023V129.039ZM684.342 88.9023C684.342 81.3828 683.121 74.5957 680.68 68.541C678.336 62.3887 674.967 57.1641 670.572 52.8672C666.275 48.4727 661.051 45.1035 654.898 42.7598C648.844 40.3184 642.154 39.0977 634.83 39.0977H583.268C575.846 39.0977 569.059 40.3184 562.906 42.7598C556.852 45.1035 551.627 48.4727 547.232 52.8672C542.838 57.1641 539.42 62.3887 536.979 68.541C534.635 74.5957 533.463 81.3828 533.463 88.9023V129.039C533.463 136.559 534.635 143.395 536.979 149.547C539.42 155.602 542.838 160.826 547.232 165.221C551.627 169.518 556.852 172.887 562.906 175.328C569.059 177.672 575.846 178.844 583.268 178.844H634.537C641.959 178.844 648.697 177.672 654.752 175.328C660.904 172.887 666.178 169.518 670.572 165.221C674.967 160.826 678.336 155.602 680.68 149.547C683.121 143.395 684.342 136.559 684.342 129.039V88.9023ZM961.93 152.184C961.93 159.703 960.953 166.49 959 172.545C957.145 178.502 954.654 183.775 951.529 188.365C948.404 192.955 944.742 196.861 940.543 200.084C936.344 203.307 931.998 205.943 927.506 207.994C923.014 210.045 918.424 211.559 913.736 212.535C909.146 213.512 904.801 214 900.699 214H753.775V175.914H900.699C908.023 175.914 913.688 173.766 917.691 169.469C921.793 165.172 923.844 159.41 923.844 152.184C923.844 148.668 923.307 145.445 922.232 142.516C921.158 139.586 919.596 137.047 917.545 134.898C915.592 132.75 913.15 131.09 910.221 129.918C907.389 128.746 904.215 128.16 900.699 128.16H813.102C806.949 128.16 800.309 127.086 793.18 124.938C786.051 122.691 779.41 119.127 773.258 114.244C767.203 109.361 762.125 102.965 758.023 95.0547C754.02 87.1445 752.018 77.4766 752.018 66.0508C752.018 54.625 754.02 45.0059 758.023 37.1934C762.125 29.2832 767.203 22.8867 773.258 18.0039C779.41 13.0234 786.051 9.45898 793.18 7.31055C800.309 5.06445 806.949 3.94141 813.102 3.94141H942.74V42.0273H813.102C805.875 42.0273 800.211 44.2246 796.109 48.6191C792.105 53.0137 790.104 58.8242 790.104 66.0508C790.104 73.375 792.105 79.1855 796.109 83.4824C800.211 87.6816 805.875 89.7812 813.102 89.7812H900.699H900.992C905.094 89.8789 909.439 90.4648 914.029 91.5391C918.619 92.5156 923.16 94.0781 927.652 96.2266C932.242 98.375 936.588 101.109 940.689 104.43C944.791 107.652 948.404 111.559 951.529 116.148C954.752 120.738 957.291 126.012 959.146 131.969C961.002 137.926 961.93 144.664 961.93 152.184ZM1021.11 194.811C1021.11 197.447 1020.57 199.938 1019.5 202.281C1018.52 204.527 1017.15 206.529 1015.4 208.287C1013.74 209.947 1011.73 211.266 1009.39 212.242C1007.14 213.219 1004.75 213.707 1002.21 213.707C999.576 213.707 997.086 213.219 994.742 212.242C992.496 211.266 990.494 209.947 988.736 208.287C987.076 206.529 985.758 204.527 984.781 202.281C983.805 199.938 983.316 197.447 983.316 194.811C983.316 192.271 983.805 189.879 984.781 187.633C985.758 185.289 987.076 183.287 988.736 181.627C990.494 179.869 992.496 178.502 994.742 177.525C997.086 176.451 999.576 175.914 1002.21 175.914C1004.75 175.914 1007.14 176.451 1009.39 177.525C1011.73 178.502 1013.74 179.869 1015.4 181.627C1017.15 183.287 1018.52 185.289 1019.5 187.633C1020.57 189.879 1021.11 192.271 1021.11 194.811ZM1265.01 74.5469C1265.01 83.2383 1263.93 91.002 1261.78 97.8379C1259.63 104.674 1256.71 110.729 1252.99 116.002C1249.38 121.178 1245.18 125.621 1240.4 129.332C1235.61 133.043 1230.58 136.119 1225.31 138.561C1220.13 140.904 1214.86 142.613 1209.49 143.688C1204.21 144.762 1199.23 145.299 1194.55 145.299L1274.09 214H1215.2L1135.81 145.299H1108.41V107.213H1194.55C1199.33 106.822 1203.68 105.846 1207.58 104.283C1211.59 102.623 1215.01 100.426 1217.84 97.6914C1220.77 94.957 1223.01 91.6855 1224.58 87.877C1226.14 83.9707 1226.92 79.5273 1226.92 74.5469V50.5234C1226.92 48.375 1226.63 46.7637 1226.04 45.6895C1225.55 44.5176 1224.87 43.6875 1223.99 43.1992C1223.21 42.6133 1222.33 42.2715 1221.35 42.1738C1220.47 42.0762 1219.64 42.0273 1218.86 42.0273H1093.18V214H1055.09V23.1309C1055.09 20.4941 1055.58 18.0039 1056.56 15.6602C1057.54 13.3164 1058.85 11.2656 1060.51 9.50781C1062.27 7.75 1064.32 6.38281 1066.67 5.40625C1069.01 4.42969 1071.55 3.94141 1074.28 3.94141H1218.86C1227.36 3.94141 1234.54 5.50391 1240.4 8.62891C1246.26 11.6562 1250.99 15.5137 1254.61 20.2012C1258.32 24.791 1260.95 29.7715 1262.52 35.1426C1264.18 40.5137 1265.01 45.543 1265.01 50.2305V74.5469ZM1509.05 194.811C1509.05 197.545 1508.56 200.084 1507.58 202.428C1506.61 204.771 1505.24 206.822 1503.48 208.58C1501.72 210.24 1499.67 211.559 1497.33 212.535C1494.99 213.512 1492.5 214 1489.86 214H1404.02C1395.91 214 1387.71 213.121 1379.41 211.363C1371.11 209.605 1363.05 206.92 1355.24 203.307C1347.53 199.596 1340.25 194.908 1333.41 189.244C1326.58 183.58 1320.57 176.891 1315.4 169.176C1310.32 161.363 1306.31 152.477 1303.38 142.516C1300.46 132.457 1298.99 121.275 1298.99 108.971V3.94141H1337.08V108.971C1337.08 119.713 1338.54 128.795 1341.47 136.217C1344.5 143.639 1348.31 149.84 1352.9 154.82C1357.49 159.801 1362.52 163.707 1367.98 166.539C1373.45 169.371 1378.63 171.471 1383.51 172.838C1388.49 174.205 1392.84 175.084 1396.55 175.475C1400.36 175.768 1402.85 175.914 1404.02 175.914H1470.96V3.94141H1509.05V194.811ZM1763.35 197.74C1763.35 200.475 1762.81 203.014 1761.73 205.357C1760.76 207.701 1759.39 209.752 1757.63 211.51C1755.97 213.17 1753.97 214.488 1751.63 215.465C1749.28 216.441 1746.79 216.93 1744.16 216.93C1741.81 216.93 1739.42 216.49 1736.98 215.611C1734.63 214.732 1732.54 213.316 1730.68 211.363L1591.52 66.0508V214H1553.43V20.2012C1553.43 16.2949 1554.51 12.7793 1556.66 9.6543C1558.9 6.43164 1561.73 4.03906 1565.15 2.47656C1568.77 1.01172 1572.48 0.669922 1576.29 1.45117C1580.09 2.13477 1583.37 3.89258 1586.1 6.72461L1725.26 151.891V3.94141H1763.35V197.74Z"/>
</mask>
<path d="M207.389 161.412L205.544 160.641L205.541 160.648L205.538 160.655L207.389 161.412ZM189.078 189.244L190.483 190.667L190.492 190.658L189.078 189.244ZM9.63477 208.58L8.18074 209.953L8.21998 209.995L8.26152 210.034L9.63477 208.58ZM9.63477 9.50781L8.22055 8.0936L8.20036 8.1138L8.18074 8.13457L9.63477 9.50781ZM189.078 28.8438L187.664 30.258L187.673 30.2668L189.078 28.8438ZM207.389 56.6758L205.535 57.4272L205.539 57.4373L205.544 57.4474L207.389 56.6758ZM172.379 71.4707L170.51 72.1827L170.515 72.1956L170.52 72.2084L172.379 71.4707ZM162.271 55.7969L160.857 57.2111L160.865 57.219L160.873 57.2269L162.271 55.7969ZM146.451 45.6895L145.703 47.5443L145.721 47.5516L145.739 47.5584L146.451 45.6895ZM42.3008 42.0273V40.0273H40.3008V42.0273H42.3008ZM42.3008 175.914H40.3008V177.914H42.3008V175.914ZM146.451 172.398L147.173 174.264L147.181 174.261L147.189 174.257L146.451 172.398ZM162.271 162.291L163.67 163.721L163.678 163.713L163.686 163.705L162.271 162.291ZM172.379 146.617L170.52 145.879L170.517 145.887L170.514 145.895L172.379 146.617ZM212.127 126.109C212.127 138.664 209.924 150.166 205.544 160.641L209.234 162.184C213.838 151.174 216.127 139.141 216.127 126.109H212.127ZM205.538 160.655C201.238 171.164 195.279 180.215 187.664 187.83L190.492 190.658C198.502 182.649 204.75 173.145 209.24 162.169L205.538 160.655ZM187.673 187.821C180.057 195.342 171.003 201.256 160.489 205.557L162.003 209.259C172.973 204.772 182.474 198.576 190.483 190.667L187.673 187.821ZM160.489 205.557C150.007 209.845 138.597 212 126.236 212V216C139.071 216 151.001 213.76 162.003 209.259L160.489 205.557ZM126.236 212H23.4043V216H126.236V212ZM23.4043 212C20.9135 212 18.6381 211.556 16.5563 210.689L15.0179 214.381C17.6236 215.467 20.4264 216 23.4043 216V212ZM16.5563 210.689C14.4247 209.801 12.5812 208.612 11.008 207.126L8.26152 210.034C10.204 211.869 12.4621 213.316 15.0179 214.381L16.5563 210.689ZM11.0888 207.207C9.60304 205.634 8.41404 203.79 7.52584 201.659L3.83353 203.197C4.89846 205.753 6.34618 208.011 8.18074 209.953L11.0888 207.207ZM7.52584 201.659C6.65844 199.577 6.21484 197.301 6.21484 194.811H2.21484C2.21484 197.788 2.74781 200.591 3.83353 203.197L7.52584 201.659ZM6.21484 194.811V23.1309H2.21484V194.811H6.21484ZM6.21484 23.1309C6.21484 20.7478 6.65475 18.52 7.52584 16.4294L3.83353 14.8909C2.7515 17.4878 2.21484 20.2404 2.21484 23.1309H6.21484ZM7.52584 16.4294C8.41404 14.2977 9.60304 12.4542 11.0888 10.8811L8.18074 8.13457C6.34618 10.077 4.89846 12.3351 3.83353 14.8909L7.52584 16.4294ZM11.049 10.922C12.6181 9.35294 14.4485 8.13069 16.5563 7.25241L15.0179 3.56009C12.4383 4.63493 10.1671 6.14706 8.22055 8.0936L11.049 10.922ZM16.5563 7.25241C18.6381 6.38501 20.9135 5.94141 23.4043 5.94141V1.94141C20.4264 1.94141 17.6236 2.47437 15.0179 3.56009L16.5563 7.25241ZM23.4043 5.94141H126.236V1.94141H23.4043V5.94141ZM126.236 5.94141C138.597 5.94141 150.007 8.09621 160.489 12.3843L162.003 8.68211C151.001 4.18114 139.071 1.94141 126.236 1.94141V5.94141ZM160.489 12.3843C170.998 16.6834 180.049 22.6427 187.664 30.258L190.492 27.4295C182.483 19.4198 172.979 13.172 162.003 8.68211L160.489 12.3843ZM187.673 30.2668C195.279 37.7783 201.236 46.8227 205.535 57.4272L209.242 55.9244C204.752 44.8492 198.502 35.3389 190.483 27.4207L187.673 30.2668ZM205.544 57.4474C209.925 67.9239 212.127 79.3775 212.127 91.832H216.127C216.127 78.8959 213.837 66.912 209.234 55.9042L205.544 57.4474ZM212.127 91.832V126.109H216.127V91.832H212.127ZM178.041 91.832C178.041 84.1881 176.783 77.1469 174.238 70.733L170.52 72.2084C172.858 78.0992 174.041 84.6322 174.041 91.832H178.041ZM174.248 70.7587C171.809 64.3554 168.286 58.8803 163.67 54.3669L160.873 57.2269C165.046 61.3072 168.262 66.2813 170.51 72.1827L174.248 70.7587ZM163.686 54.3827C159.08 49.777 153.563 46.2585 147.163 43.8205L145.739 47.5584C151.644 49.8079 156.674 53.0277 160.857 57.2111L163.686 54.3827ZM147.199 43.8346C140.876 41.2851 133.88 40.0273 126.236 40.0273V44.0273C133.437 44.0273 139.917 45.211 145.703 47.5443L147.199 43.8346ZM126.236 40.0273H42.3008V44.0273H126.236V40.0273ZM40.3008 42.0273V175.914H44.3008V42.0273H40.3008ZM42.3008 177.914H126.236V173.914H42.3008V177.914ZM126.236 177.914C133.87 177.914 140.858 176.708 147.173 174.264L145.729 170.533C139.935 172.776 133.446 173.914 126.236 173.914V177.914ZM147.189 174.257C153.568 171.726 159.071 168.217 163.67 163.721L160.873 160.861C156.682 164.959 151.639 168.188 145.713 170.539L147.189 174.257ZM163.686 163.705C168.286 159.105 171.804 153.642 174.244 147.339L170.514 145.895C168.266 151.702 165.046 156.688 160.857 160.877L163.686 163.705ZM174.238 147.355C176.784 140.938 178.041 133.847 178.041 126.109H174.041C174.041 133.41 172.856 139.992 170.52 145.879L174.238 147.355ZM178.041 126.109V91.832H174.041V126.109H178.041ZM457.584 214V216H459.584V214H457.584ZM419.498 214H417.498V216H419.498V214ZM419.498 162.438H421.498V160.438H419.498V162.438ZM285.611 162.438V160.438H283.611V162.438H285.611ZM285.611 214V216H287.611V214H285.611ZM247.525 214H245.525V216H247.525V214ZM285.611 124.352H283.611V126.352H285.611V124.352ZM419.498 124.352V126.352H421.498V124.352H419.498ZM419.498 42.0273H421.498V40.0273H419.498V42.0273ZM345.084 42.6133L345.241 44.6071L345.265 44.6052L345.288 44.6028L345.084 42.6133ZM332.047 45.1035L331.517 43.1748L331.508 43.1776L332.047 45.1035ZM290.006 81.8711L288.151 81.1241L288.146 81.1368L290.006 81.8711ZM457.584 212H419.498V216H457.584V212ZM421.498 214V162.438H417.498V214H421.498ZM419.498 160.438H285.611V164.438H419.498V160.438ZM283.611 162.438V214H287.611V162.438H283.611ZM285.611 212H247.525V216H285.611V212ZM249.525 214V108.971H245.525V214H249.525ZM249.525 108.971C249.525 93.8721 252.121 80.0211 257.287 67.394L253.584 65.8795C248.203 79.0336 245.525 93.4052 245.525 108.971H249.525ZM257.287 67.394C262.464 54.7383 269.642 43.8839 278.815 34.8064L276.001 31.9632C266.425 41.4403 258.954 52.7539 253.584 65.8795L257.287 67.394ZM278.815 34.8064C287.993 25.7238 298.851 18.6403 311.41 13.5591L309.91 9.85107C296.883 15.1214 285.573 22.4911 276.001 31.9632L278.815 34.8064ZM311.41 13.5591C323.943 8.48868 337.65 5.94141 352.555 5.94141V1.94141C337.186 1.94141 322.963 4.56992 309.91 9.85107L311.41 13.5591ZM352.555 5.94141H438.395V1.94141H352.555V5.94141ZM438.395 5.94141C440.778 5.94141 443.005 6.38132 445.096 7.25241L446.634 3.56009C444.038 2.47806 441.285 1.94141 438.395 1.94141V5.94141ZM445.096 7.25241C447.204 8.13069 449.034 9.35294 450.603 10.922L453.432 8.0936C451.485 6.14706 449.214 4.63493 446.634 3.56009L445.096 7.25241ZM450.603 10.922C452.172 12.4911 453.395 14.3215 454.273 16.4294L457.965 14.8909C456.89 12.3113 455.378 10.0401 453.432 8.0936L450.603 10.922ZM454.273 16.4294C455.144 18.52 455.584 20.7478 455.584 23.1309H459.584C459.584 20.2404 459.047 17.4878 457.965 14.8909L454.273 16.4294ZM455.584 23.1309V214H459.584V23.1309H455.584ZM285.611 126.352H419.498V122.352H285.611V126.352ZM421.498 124.352V42.0273H417.498V124.352H421.498ZM419.498 40.0273H352.555V44.0273H419.498V40.0273ZM352.555 40.0273C351.261 40.0273 348.665 40.2355 344.88 40.6237L345.288 44.6028C349.12 44.2098 351.504 44.0273 352.555 44.0273V40.0273ZM344.927 40.6195C341.052 40.9254 336.577 41.7861 331.517 43.1749L332.576 47.0322C337.478 45.6866 341.694 44.8871 345.241 44.6071L344.927 40.6195ZM331.508 43.1776C326.469 44.5885 321.165 46.7443 315.6 49.6264L317.439 53.1783C322.811 50.3963 327.859 48.3529 332.586 47.0294L331.508 43.1776ZM315.6 49.6264C309.905 52.5756 304.693 56.6311 299.961 61.7657L302.902 64.4765C307.35 59.6502 312.197 55.8931 317.439 53.1783L315.6 49.6264ZM299.961 61.7657C295.178 66.9553 291.251 73.4233 288.151 81.1242L291.861 82.618C294.815 75.2798 298.505 69.2478 302.902 64.4765L299.961 61.7657ZM288.146 81.1368C285.098 88.8563 283.611 98.1539 283.611 108.971H287.611C287.611 98.4984 289.054 89.7297 291.866 82.6054L288.146 81.1368ZM283.611 108.971V124.352H287.611V108.971H283.611ZM669.693 210.484L670.442 212.339L670.451 212.335L669.693 210.484ZM548.258 210.484L547.501 212.335L547.508 212.338L547.515 212.341L548.258 210.484ZM501.969 164.342L500.118 165.099L500.121 165.106L500.124 165.113L501.969 164.342ZM501.969 53.7461L500.121 52.9804L500.118 52.9888L501.969 53.7461ZM520.426 25.9141L521.831 27.3372L521.84 27.3283L520.426 25.9141ZM669.693 7.60352L668.93 9.45218L668.936 9.45461L669.693 7.60352ZM697.525 25.9141L696.111 27.3283L696.12 27.3371L697.525 25.9141ZM715.836 53.7461L713.982 54.4975L713.985 54.5034L715.836 53.7461ZM680.68 68.541L678.811 69.253L678.818 69.271L678.825 69.289L680.68 68.541ZM670.572 52.8672L669.142 54.2654L669.158 54.2815L669.174 54.2972L670.572 52.8672ZM654.898 42.7598L654.151 44.6147L654.168 44.6219L654.186 44.6287L654.898 42.7598ZM562.906 42.7598L563.628 44.6249L563.636 44.6219L563.644 44.6187L562.906 42.7598ZM547.232 52.8672L548.631 54.2972L548.639 54.2894L548.647 54.2814L547.232 52.8672ZM536.979 68.541L535.12 67.8033L535.116 67.8112L535.113 67.819L536.979 68.541ZM536.979 149.547L535.11 150.259L535.116 150.277L535.124 150.295L536.979 149.547ZM547.232 165.221L545.818 166.635L545.826 166.643L545.834 166.651L547.232 165.221ZM562.906 175.328L562.158 177.183L562.176 177.19L562.194 177.197L562.906 175.328ZM654.752 175.328L655.474 177.193L655.482 177.19L655.49 177.187L654.752 175.328ZM670.572 165.221L671.971 166.651L671.979 166.643L671.986 166.635L670.572 165.221ZM680.68 149.547L678.821 148.809L678.818 148.817L678.815 148.825L680.68 149.547ZM720.428 129.039C720.428 141.599 718.271 153.106 713.985 163.585L717.687 165.099C722.19 154.093 724.428 142.065 724.428 129.039H720.428ZM713.985 163.585C709.686 174.094 703.726 183.144 696.111 190.76L698.94 193.588C706.949 185.578 713.197 176.074 717.687 165.099L713.985 163.585ZM696.111 190.76C688.496 198.375 679.445 204.334 668.936 208.633L670.451 212.335C681.426 207.846 690.93 201.598 698.94 193.588L696.111 190.76ZM668.945 208.63C658.56 212.822 647.196 214.93 634.83 214.93V218.93C647.659 218.93 659.537 216.741 670.442 212.339L668.945 208.63ZM634.83 214.93H583.268V218.93H634.83V214.93ZM583.268 214.93C570.902 214.93 559.486 212.822 549.001 208.627L547.515 212.341C558.514 216.741 570.438 218.93 583.268 218.93V214.93ZM549.015 208.633C538.506 204.334 529.455 198.375 521.84 190.76L519.012 193.588C527.021 201.598 536.525 207.846 547.501 212.335L549.015 208.633ZM521.84 190.76C514.221 183.141 508.211 174.085 503.814 163.57L500.124 165.113C504.711 176.083 511.005 185.582 519.012 193.588L521.84 190.76ZM503.82 163.585C499.533 153.106 497.377 141.599 497.377 129.039H493.377C493.377 142.065 495.615 154.093 500.118 165.099L503.82 163.585ZM497.377 129.039V88.9023H493.377V129.039H497.377ZM497.377 88.9023C497.377 76.4422 499.533 64.9835 503.82 54.5034L500.118 52.9888C495.616 63.993 493.377 75.9718 493.377 88.9023H497.377ZM503.816 54.5118C508.214 43.9012 514.221 34.8519 521.831 27.3371L519.021 24.491C511.005 32.4059 504.708 41.9113 500.121 52.9804L503.816 54.5118ZM521.84 27.3283C529.455 19.713 538.506 13.7537 549.015 9.45461L547.501 5.75243C536.525 10.2424 527.021 16.4901 519.012 24.4998L521.84 27.3283ZM549.015 9.45461C559.497 5.16652 570.907 3.01172 583.268 3.01172V-0.988281C570.433 -0.988281 558.503 1.25145 547.501 5.75243L549.015 9.45461ZM583.268 3.01172H634.83V-0.988281H583.268V3.01172ZM634.83 3.01172C647.191 3.01172 658.549 5.16658 668.93 9.45216L670.457 5.75487C659.548 1.25139 647.665 -0.988281 634.83 -0.988281V3.01172ZM668.936 9.45461C679.445 13.7537 688.496 19.713 696.111 27.3283L698.94 24.4998C690.93 16.4901 681.426 10.2424 670.451 5.75243L668.936 9.45461ZM696.12 27.3371C703.727 34.8486 709.683 43.893 713.982 54.4975L717.689 52.9947C713.199 41.9195 706.949 32.4092 698.931 24.491L696.12 27.3371ZM713.985 54.5034C718.272 64.9835 720.428 76.4422 720.428 88.9023H724.428C724.428 75.9718 722.189 63.993 717.687 52.9888L713.985 54.5034ZM720.428 88.9023V129.039H724.428V88.9023H720.428ZM686.342 88.9023C686.342 81.165 685.085 74.1187 682.535 67.7931L678.825 69.289C681.157 75.0727 682.342 81.6006 682.342 88.9023H686.342ZM682.549 67.829C680.109 61.4257 676.587 55.9507 671.971 51.4372L669.174 54.2972C673.347 58.3775 676.563 63.3517 678.811 69.253L682.549 67.829ZM672.002 51.4689C667.489 46.8529 662.014 43.3302 655.61 40.8908L654.186 44.6287C660.088 46.8769 665.062 50.0924 669.142 54.2654L672.002 51.4689ZM655.646 40.9049C649.327 38.3566 642.379 37.0977 634.83 37.0977V41.0977C641.929 41.0977 648.361 42.2801 654.151 44.6147L655.646 40.9049ZM634.83 37.0977H583.268V41.0977H634.83V37.0977ZM583.268 37.0977C575.624 37.0977 568.582 38.3556 562.169 40.9008L563.644 44.6187C569.535 42.2811 576.068 41.0977 583.268 41.0977V37.0977ZM562.184 40.8946C555.882 43.3343 550.418 46.8528 545.818 51.453L548.647 54.2814C552.836 50.0925 557.821 46.8727 563.628 44.6249L562.184 40.8946ZM545.834 51.4372C541.224 55.9447 537.656 61.4108 535.12 67.8033L538.838 69.2787C541.184 63.3665 544.452 58.3834 548.631 54.2972L545.834 51.4372ZM535.113 67.819C532.668 74.1374 531.463 81.1744 531.463 88.9023H535.463C535.463 81.5912 536.602 75.054 538.844 69.263L535.113 67.819ZM531.463 88.9023V129.039H535.463V88.9023H531.463ZM531.463 129.039C531.463 136.768 532.668 143.849 535.11 150.259L538.847 148.835C536.602 142.94 535.463 136.349 535.463 129.039H531.463ZM535.124 150.295C537.66 156.586 541.224 162.041 545.818 166.635L548.647 163.806C544.452 159.612 541.179 154.617 538.833 148.799L535.124 150.295ZM545.834 166.651C550.427 171.142 555.876 174.65 562.158 177.183L563.654 173.473C557.827 171.123 552.827 167.894 548.631 163.791L545.834 166.651ZM562.194 177.197C568.601 179.638 575.633 180.844 583.268 180.844V176.844C576.058 176.844 569.516 175.706 563.618 173.459L562.194 177.197ZM583.268 180.844H634.537V176.844H583.268V180.844ZM634.537 180.844C642.171 180.844 649.158 179.638 655.474 177.193L654.03 173.463C648.236 175.706 641.747 176.844 634.537 176.844V180.844ZM655.49 177.187C661.869 174.656 667.372 171.147 671.971 166.651L669.174 163.791C664.983 167.888 659.939 171.118 654.014 173.469L655.49 177.187ZM671.986 166.635C676.587 162.035 680.105 156.571 682.545 150.269L678.815 148.825C676.567 154.632 673.347 159.618 669.158 163.806L671.986 166.635ZM682.539 150.285C685.085 143.868 686.342 136.777 686.342 129.039H682.342C682.342 136.34 681.157 142.921 678.821 148.809L682.539 150.285ZM686.342 129.039V88.9023H682.342V129.039H686.342ZM959 172.545L957.097 171.931L957.094 171.941L957.09 171.95L959 172.545ZM913.736 212.535L913.328 210.577L913.32 210.579L913.736 212.535ZM753.775 214H751.775V216H753.775V214ZM753.775 175.914V173.914H751.775V175.914H753.775ZM917.691 169.469L916.245 168.088L916.236 168.096L916.228 168.105L917.691 169.469ZM917.545 134.898L916.065 136.244L916.081 136.262L916.098 136.279L917.545 134.898ZM910.221 129.918L909.456 131.766L909.467 131.771L909.478 131.775L910.221 129.918ZM793.18 124.938L792.579 126.845L792.591 126.849L792.603 126.852L793.18 124.938ZM773.258 114.244L772.002 115.801L772.008 115.806L772.015 115.811L773.258 114.244ZM758.023 95.0547L756.239 95.9579L756.243 95.9666L756.248 95.9753L758.023 95.0547ZM758.023 37.1934L756.248 36.2727L756.244 36.2812L758.023 37.1934ZM773.258 18.0039L774.513 19.5607L774.516 19.5584L773.258 18.0039ZM793.18 7.31055L793.757 9.22548L793.769 9.22186L793.781 9.21811L793.18 7.31055ZM942.74 3.94141H944.74V1.94141H942.74V3.94141ZM942.74 42.0273V44.0273H944.74V42.0273H942.74ZM796.109 48.6191L794.647 47.2545L794.639 47.2633L794.631 47.2722L796.109 48.6191ZM796.109 83.4824L794.646 84.8459L794.662 84.8631L794.679 84.8799L796.109 83.4824ZM900.992 89.7812L901.04 87.7818L901.016 87.7812H900.992V89.7812ZM914.029 91.5391L913.573 93.4864L913.593 93.4911L913.613 93.4953L914.029 91.5391ZM927.652 96.2266L926.789 98.0308L926.797 98.0344L926.804 98.0379L927.652 96.2266ZM940.689 104.43L939.431 105.984L939.442 105.993L939.454 106.002L940.689 104.43ZM951.529 116.148L949.876 117.274L949.884 117.286L949.892 117.298L951.529 116.148ZM959.93 152.184C959.93 159.532 958.975 166.107 957.097 171.931L960.903 173.159C962.931 166.874 963.93 159.875 963.93 152.184H959.93ZM957.09 171.95C955.287 177.742 952.877 182.832 949.876 187.24L953.182 189.491C956.432 184.719 959.002 179.262 960.91 173.14L957.09 171.95ZM949.876 187.24C946.865 191.662 943.348 195.41 939.325 198.497L941.761 201.671C946.137 198.312 949.944 194.248 953.182 189.491L949.876 187.24ZM939.325 198.497C935.237 201.635 931.021 204.191 926.675 206.175L928.336 209.814C932.975 207.696 937.45 204.979 941.761 201.671L939.325 198.497ZM926.675 206.175C922.314 208.166 917.866 209.632 913.328 210.577L914.144 214.493C918.982 213.485 923.713 211.924 928.336 209.814L926.675 206.175ZM913.32 210.579C908.848 211.53 904.643 212 900.699 212V216C904.959 216 909.445 215.493 914.153 214.491L913.32 210.579ZM900.699 212H753.775V216H900.699V212ZM755.775 214V175.914H751.775V214H755.775ZM753.775 177.914H900.699V173.914H753.775V177.914ZM900.699 177.914C908.432 177.914 914.683 175.631 919.155 170.832L916.228 168.105C912.692 171.9 907.615 173.914 900.699 173.914V177.914ZM919.138 170.85C923.669 166.103 925.844 159.807 925.844 152.184H921.844C921.844 159.014 919.917 164.24 916.245 168.088L919.138 170.85ZM925.844 152.184C925.844 148.463 925.275 145.003 924.11 141.827L920.355 143.204C921.339 145.887 921.844 148.873 921.844 152.184H925.844ZM924.11 141.827C922.946 138.653 921.242 135.875 918.992 133.517L916.098 136.279C917.95 138.219 919.37 140.519 920.355 143.204L924.11 141.827ZM919.025 133.553C916.851 131.162 914.15 129.335 910.964 128.061L909.478 131.775C912.151 132.844 914.333 134.338 916.065 136.244L919.025 133.553ZM910.985 128.07C907.878 126.784 904.439 126.16 900.699 126.16V130.16C903.991 130.16 906.899 130.708 909.456 131.766L910.985 128.07ZM900.699 126.16H813.102V130.16H900.699V126.16ZM813.102 126.16C807.181 126.16 800.736 125.126 793.757 123.023L792.603 126.852C799.881 129.046 806.718 130.16 813.102 130.16V126.16ZM793.781 123.03C786.897 120.861 780.472 117.416 774.501 112.678L772.015 115.811C778.348 120.838 785.205 124.522 792.579 126.845L793.781 123.03ZM774.513 112.687C768.703 108.002 763.792 101.834 759.799 94.134L756.248 95.9753C760.458 104.096 765.703 110.721 772.002 115.801L774.513 112.687ZM759.808 94.1515C755.981 86.5903 754.018 77.2505 754.018 66.0508H750.018C750.018 77.7027 752.058 87.6988 756.239 95.9579L759.808 94.1515ZM754.018 66.0508C754.018 54.8499 755.981 45.5636 759.803 38.1055L756.244 36.2812C752.058 44.4481 750.018 54.4001 750.018 66.0508H754.018ZM759.799 38.114C763.792 30.414 768.703 24.2462 774.513 19.5607L772.002 16.4471C765.703 21.5272 760.458 28.1524 756.248 36.2727L759.799 38.114ZM774.516 19.5584C780.48 14.7307 786.892 11.2944 793.757 9.22548L792.603 5.39561C785.21 7.62354 778.34 11.3162 771.999 16.4494L774.516 19.5584ZM793.781 9.21811C800.755 7.0206 807.191 5.94141 813.102 5.94141V1.94141C806.707 1.94141 799.862 3.10831 792.579 5.40298L793.781 9.21811ZM813.102 5.94141H942.74V1.94141H813.102V5.94141ZM940.74 3.94141V42.0273H944.74V3.94141H940.74ZM942.74 40.0273H813.102V44.0273H942.74V40.0273ZM813.102 40.0273C805.442 40.0273 799.203 42.3739 794.647 47.2545L797.571 49.9838C801.219 46.0754 806.308 44.0273 813.102 44.0273V40.0273ZM794.631 47.2722C790.222 52.1107 788.104 58.4388 788.104 66.0508H792.104C792.104 59.2096 793.988 53.9166 797.588 49.9661L794.631 47.2722ZM788.104 66.0508C788.104 73.7503 790.217 80.0931 794.646 84.8459L797.573 82.119C793.994 78.278 792.104 72.9997 792.104 66.0508H788.104ZM794.679 84.8799C799.24 89.55 805.469 91.7812 813.102 91.7812V87.7812C806.281 87.7812 801.182 85.8133 797.54 82.0849L794.679 84.8799ZM813.102 91.7812H900.699V87.7812H813.102V91.7812ZM900.699 91.7812H900.992V87.7812H900.699V91.7812ZM900.945 91.7807C904.89 91.8746 909.098 92.439 913.573 93.4864L914.485 89.5917C909.781 88.4907 905.297 87.8832 901.04 87.7818L900.945 91.7807ZM913.613 93.4953C918.039 94.4371 922.431 95.9464 926.789 98.0308L928.515 94.4223C923.889 92.2099 919.199 90.5942 914.446 89.5829L913.613 93.4953ZM926.804 98.0379C931.242 100.115 935.45 102.762 939.431 105.984L941.948 102.875C937.726 99.4572 933.243 96.6351 928.5 94.4152L926.804 98.0379ZM939.454 106.002C943.384 109.09 946.859 112.843 949.876 117.274L953.182 115.023C949.949 110.274 946.198 106.214 941.925 102.857L939.454 106.002ZM949.892 117.298C952.984 121.7 955.436 126.782 957.237 132.564L961.056 131.374C959.146 125.241 956.52 119.777 953.166 114.999L949.892 117.298ZM957.237 132.564C959.022 138.293 959.93 144.826 959.93 152.184H963.93C963.93 144.502 962.982 137.558 961.056 131.374L957.237 132.564ZM1019.5 202.281L1017.68 201.448L1017.67 201.466L1017.66 201.484L1019.5 202.281ZM1009.39 212.242L1008.62 210.396L1008.61 210.402L1008.59 210.408L1009.39 212.242ZM994.742 212.242L993.945 214.076L993.959 214.082L993.973 214.088L994.742 212.242ZM988.736 208.287L987.282 209.66L987.322 209.702L987.363 209.741L988.736 208.287ZM984.781 202.281L982.935 203.05L982.941 203.065L982.947 203.079L984.781 202.281ZM984.781 187.633L986.615 188.43L986.621 188.416L986.627 188.402L984.781 187.633ZM994.742 177.525L995.54 179.36L995.558 179.352L995.575 179.344L994.742 177.525ZM1009.39 177.525L1008.53 179.33L1008.57 179.352L1008.62 179.372L1009.39 177.525ZM1015.4 181.627L1013.94 183L1013.98 183.042L1014.02 183.081L1015.4 181.627ZM1019.5 187.633L1017.65 188.402L1017.67 188.449L1017.69 188.496L1019.5 187.633ZM1019.11 194.811C1019.11 197.166 1018.63 199.372 1017.68 201.448L1021.32 203.115C1022.51 200.503 1023.11 197.728 1023.11 194.811H1019.11ZM1017.66 201.484C1016.79 203.496 1015.57 205.29 1013.98 206.873L1016.81 209.701C1018.74 207.769 1020.25 205.558 1021.33 203.079L1017.66 201.484ZM1013.98 206.873C1012.52 208.334 1010.74 209.512 1008.62 210.396L1010.16 214.088C1012.72 213.02 1014.95 211.561 1016.81 209.701L1013.98 206.873ZM1008.59 210.408C1006.61 211.271 1004.49 211.707 1002.21 211.707V215.707C1005.02 215.707 1007.68 215.166 1010.19 214.076L1008.59 210.408ZM1002.21 211.707C999.83 211.707 997.602 211.267 995.511 210.396L993.973 214.088C996.57 215.17 999.323 215.707 1002.21 215.707V211.707ZM995.54 210.408C993.503 209.523 991.697 208.332 990.11 206.833L987.363 209.741C989.292 211.562 991.489 213.009 993.945 214.076L995.54 210.408ZM990.19 206.914C988.691 205.327 987.501 203.52 986.615 201.484L982.947 203.079C984.015 205.534 985.461 207.732 987.282 209.66L990.19 206.914ZM986.627 201.512C985.756 199.421 985.316 197.194 985.316 194.811H981.316C981.316 197.701 981.853 200.454 982.935 203.05L986.627 201.512ZM985.316 194.811C985.316 192.536 985.752 190.415 986.615 188.43L982.947 186.835C981.857 189.342 981.316 192.007 981.316 194.811H985.316ZM986.627 188.402C987.512 186.28 988.69 184.502 990.151 183.041L987.322 180.213C985.463 182.072 984.004 184.298 982.935 186.864L986.627 188.402ZM990.151 183.041C991.734 181.458 993.527 180.235 995.54 179.36L993.945 175.691C991.465 176.769 989.255 178.28 987.322 180.213L990.151 183.041ZM995.575 179.344C997.652 178.392 999.857 177.914 1002.21 177.914V173.914C999.295 173.914 996.52 174.51 993.909 175.707L995.575 179.344ZM1002.21 177.914C1004.46 177.914 1006.56 178.387 1008.53 179.33L1010.25 175.721C1007.73 174.515 1005.04 173.914 1002.21 173.914V177.914ZM1008.62 179.372C1010.72 180.246 1012.48 181.456 1013.94 183L1016.85 180.254C1014.99 178.282 1012.75 176.758 1010.16 175.679L1008.62 179.372ZM1014.02 183.081C1015.57 184.539 1016.78 186.304 1017.65 188.402L1021.34 186.864C1020.27 184.274 1018.74 182.035 1016.77 180.173L1014.02 183.081ZM1017.69 188.496C1018.64 190.467 1019.11 192.564 1019.11 194.811H1023.11C1023.11 191.979 1022.51 189.291 1021.3 186.77L1017.69 188.496ZM1252.99 116.002L1251.36 114.851L1251.35 114.857L1252.99 116.002ZM1225.31 138.561L1226.13 140.382L1226.14 140.379L1226.15 140.375L1225.31 138.561ZM1209.49 143.688L1209.1 141.726L1209.09 141.728L1209.49 143.688ZM1194.55 145.299V143.299H1189.17L1193.24 146.812L1194.55 145.299ZM1274.09 214V216H1279.46L1275.4 212.486L1274.09 214ZM1215.2 214L1213.89 215.512L1214.46 216H1215.2V214ZM1135.81 145.299L1137.12 143.786L1136.55 143.299H1135.81V145.299ZM1108.41 145.299H1106.41V147.299H1108.41V145.299ZM1108.41 107.213V105.213H1106.41V107.213H1108.41ZM1194.55 107.213V109.213H1194.63L1194.71 109.206L1194.55 107.213ZM1207.58 104.283L1208.33 106.14L1208.34 106.135L1208.35 106.131L1207.58 104.283ZM1217.84 97.6914L1216.47 96.2293L1216.46 96.2408L1216.45 96.2526L1217.84 97.6914ZM1224.58 87.877L1226.43 88.6361L1226.43 88.6279L1226.43 88.6197L1224.58 87.877ZM1226.04 45.6895L1224.19 46.4587L1224.24 46.5553L1224.29 46.6472L1226.04 45.6895ZM1223.99 43.1992L1222.79 44.7992L1222.9 44.8812L1223.02 44.9475L1223.99 43.1992ZM1221.35 42.1738L1221.13 44.1616L1221.14 44.1628L1221.15 44.1639L1221.35 42.1738ZM1093.18 42.0273V40.0273H1091.18V42.0273H1093.18ZM1093.18 214V216H1095.18V214H1093.18ZM1055.09 214H1053.09V216H1055.09V214ZM1060.51 9.50781L1059.1 8.0936L1059.08 8.1138L1059.06 8.13457L1060.51 9.50781ZM1240.4 8.62891L1239.46 10.3936L1239.47 10.3998L1239.48 10.4058L1240.4 8.62891ZM1254.61 20.2012L1253.02 21.4222L1253.04 21.4406L1253.05 21.4586L1254.61 20.2012ZM1262.52 35.1426L1260.6 35.7012L1260.6 35.7173L1260.6 35.7332L1262.52 35.1426ZM1263.01 74.5469C1263.01 83.0766 1261.95 90.6325 1259.88 97.2382L1263.69 98.4375C1265.91 91.3714 1267.01 83.3999 1267.01 74.5469H1263.01ZM1259.88 97.2382C1257.78 103.899 1254.94 109.764 1251.36 114.851L1254.63 117.153C1258.47 111.693 1261.49 105.449 1263.69 98.4375L1259.88 97.2382ZM1251.35 114.857C1247.85 119.875 1243.79 124.169 1239.17 127.752L1241.62 130.912C1246.57 127.073 1250.91 122.481 1254.63 117.147L1251.35 114.857ZM1239.17 127.752C1234.5 131.374 1229.6 134.37 1224.47 136.746L1226.15 140.375C1231.56 137.868 1236.72 134.712 1241.62 130.912L1239.17 127.752ZM1224.48 136.739C1219.44 139.022 1214.31 140.683 1209.1 141.726L1209.88 145.649C1215.41 144.544 1220.82 142.787 1226.13 140.382L1224.48 136.739ZM1209.09 141.728C1203.93 142.779 1199.08 143.299 1194.55 143.299V147.299C1199.39 147.299 1204.5 146.744 1209.89 145.647L1209.09 141.728ZM1193.24 146.812L1272.78 215.514L1275.4 212.486L1195.85 143.785L1193.24 146.812ZM1274.09 212H1215.2V216H1274.09V212ZM1216.51 212.488L1137.12 143.786L1134.5 146.811L1213.89 215.512L1216.51 212.488ZM1135.81 143.299H1108.41V147.299H1135.81V143.299ZM1110.41 145.299V107.213H1106.41V145.299H1110.41ZM1108.41 109.213H1194.55V105.213H1108.41V109.213ZM1194.71 109.206C1199.67 108.802 1204.21 107.786 1208.33 106.14L1206.84 102.426C1203.14 103.905 1199 104.843 1194.38 105.22L1194.71 109.206ZM1208.35 106.131C1212.56 104.384 1216.2 102.055 1219.23 99.1302L1216.45 96.2526C1213.81 98.7961 1210.61 100.862 1206.82 102.436L1208.35 106.131ZM1219.2 99.1535C1222.35 96.2171 1224.76 92.7038 1226.43 88.6361L1222.73 87.1178C1221.27 90.6673 1219.19 93.697 1216.47 96.2293L1219.2 99.1535ZM1226.43 88.6197C1228.11 84.4381 1228.92 79.7359 1228.92 74.5469H1224.92C1224.92 79.3188 1224.17 83.5033 1222.72 87.1342L1226.43 88.6197ZM1228.92 74.5469V50.5234H1224.92V74.5469H1228.92ZM1228.92 50.5234C1228.92 48.2587 1228.62 46.2452 1227.8 44.7318L1224.29 46.6472C1224.63 47.2821 1224.92 48.4913 1224.92 50.5234H1228.92ZM1227.89 44.9202C1227.27 43.444 1226.33 42.2099 1224.96 41.4509L1223.02 44.9475C1223.41 45.1651 1223.83 45.5912 1224.19 46.4587L1227.89 44.9202ZM1225.19 41.5992C1224.12 40.7932 1222.89 40.3175 1221.55 40.1837L1221.15 44.1639C1221.77 44.2254 1222.3 44.4333 1222.79 44.7992L1225.19 41.5992ZM1221.57 40.1861C1220.63 40.0813 1219.73 40.0273 1218.86 40.0273V44.0273C1219.56 44.0273 1220.32 44.071 1221.13 44.1616L1221.57 40.1861ZM1218.86 40.0273H1093.18V44.0273H1218.86V40.0273ZM1091.18 42.0273V214H1095.18V42.0273H1091.18ZM1093.18 212H1055.09V216H1093.18V212ZM1057.09 214V23.1309H1053.09V214H1057.09ZM1057.09 23.1309C1057.09 20.7478 1057.53 18.52 1058.4 16.4294L1054.71 14.8909C1053.63 17.4878 1053.09 20.2404 1053.09 23.1309H1057.09ZM1058.4 16.4294C1059.29 14.2977 1060.48 12.4542 1061.97 10.8811L1059.06 8.13457C1057.23 10.077 1055.78 12.3351 1054.71 14.8909L1058.4 16.4294ZM1061.93 10.922C1063.5 9.35294 1065.33 8.13069 1067.44 7.25241L1065.9 3.56009C1063.32 4.63493 1061.05 6.14706 1059.1 8.0936L1061.93 10.922ZM1067.44 7.25241C1069.52 6.38501 1071.79 5.94141 1074.28 5.94141V1.94141C1071.31 1.94141 1068.5 2.47437 1065.9 3.56009L1067.44 7.25241ZM1074.28 5.94141H1218.86V1.94141H1074.28V5.94141ZM1218.86 5.94141C1227.12 5.94141 1233.96 7.4603 1239.46 10.3936L1241.34 6.8642C1235.12 3.54752 1227.6 1.94141 1218.86 1.94141V5.94141ZM1239.48 10.4058C1245.11 13.3142 1249.61 16.9917 1253.02 21.4222L1256.19 18.9802C1252.38 14.0356 1247.4 9.99826 1241.31 6.85205L1239.48 10.4058ZM1253.05 21.4586C1256.6 25.8536 1259.11 30.5989 1260.6 35.7012L1264.44 34.5839C1262.8 28.9441 1260.03 23.7284 1256.16 18.9437L1253.05 21.4586ZM1260.6 35.7332C1262.22 40.9498 1263.01 45.7784 1263.01 50.2305H1267.01C1267.01 45.3075 1266.13 40.0775 1264.43 34.552L1260.6 35.7332ZM1263.01 50.2305V74.5469H1267.01V50.2305H1263.01ZM1503.48 208.58L1504.86 210.034L1504.88 210.014L1504.9 209.994L1503.48 208.58ZM1355.24 203.307L1354.37 205.109L1354.39 205.116L1354.4 205.122L1355.24 203.307ZM1315.4 169.176L1313.72 170.266L1313.73 170.278L1313.74 170.29L1315.4 169.176ZM1303.38 142.516L1301.46 143.075L1301.47 143.08L1303.38 142.516ZM1298.99 3.94141V1.94141H1296.99V3.94141H1298.99ZM1337.08 3.94141H1339.08V1.94141H1337.08V3.94141ZM1341.47 136.217L1339.61 136.951L1339.61 136.962L1339.62 136.972L1341.47 136.217ZM1383.51 172.838L1382.97 174.764L1382.98 174.767L1383.51 172.838ZM1396.55 175.475L1396.34 177.464L1396.37 177.467L1396.4 177.469L1396.55 175.475ZM1470.96 175.914V177.914H1472.96V175.914H1470.96ZM1470.96 3.94141V1.94141H1468.96V3.94141H1470.96ZM1509.05 3.94141H1511.05V1.94141H1509.05V3.94141ZM1507.05 194.811C1507.05 197.301 1506.61 199.577 1505.74 201.659L1509.43 203.197C1510.52 200.591 1511.05 197.788 1511.05 194.811H1507.05ZM1505.74 201.659C1504.86 203.766 1503.64 205.597 1502.07 207.166L1504.9 209.994C1506.84 208.048 1508.36 205.777 1509.43 203.197L1505.74 201.659ZM1502.11 207.126C1500.54 208.612 1498.69 209.801 1496.56 210.689L1498.1 214.381C1500.66 213.316 1502.91 211.869 1504.86 210.034L1502.11 207.126ZM1496.56 210.689C1494.47 211.56 1492.24 212 1489.86 212V216C1492.75 216 1495.5 215.463 1498.1 214.381L1496.56 210.689ZM1489.86 212H1404.02V216H1489.86V212ZM1404.02 212C1396.06 212 1388 211.137 1379.82 209.407L1379 213.32C1387.43 215.105 1395.77 216 1404.02 216V212ZM1379.82 209.407C1371.67 207.68 1363.76 205.043 1356.08 201.491L1354.4 205.122C1362.35 208.797 1370.55 211.531 1379 213.32L1379.82 209.407ZM1356.11 201.504C1348.54 197.866 1341.41 193.268 1334.69 187.704L1332.14 190.784C1339.09 196.548 1346.51 201.325 1354.37 205.109L1356.11 201.504ZM1334.69 187.704C1328.01 182.168 1322.13 175.624 1317.06 168.062L1313.74 170.29C1319.01 178.157 1325.15 184.992 1332.14 190.784L1334.69 187.704ZM1317.07 168.086C1312.11 160.453 1308.18 151.747 1305.3 141.951L1301.47 143.08C1304.44 153.206 1308.52 162.273 1313.72 170.266L1317.07 168.086ZM1305.3 141.956C1302.44 132.108 1300.99 121.118 1300.99 108.971H1296.99C1296.99 121.433 1298.47 132.806 1301.46 143.075L1305.3 141.956ZM1300.99 108.971V3.94141H1296.99V108.971H1300.99ZM1298.99 5.94141H1337.08V1.94141H1298.99V5.94141ZM1335.08 3.94141V108.971H1339.08V3.94141H1335.08ZM1335.08 108.971C1335.08 119.882 1336.56 129.23 1339.61 136.951L1343.33 135.482C1340.52 128.36 1339.08 119.543 1339.08 108.971H1335.08ZM1339.62 136.972C1342.72 144.576 1346.65 150.991 1351.43 156.176L1354.37 153.465C1349.97 148.689 1346.28 142.702 1343.32 135.461L1339.62 136.972ZM1351.43 156.176C1356.16 161.31 1361.37 165.366 1367.06 168.315L1368.9 164.763C1363.66 162.048 1358.81 158.291 1354.37 153.465L1351.43 156.176ZM1367.06 168.315C1372.63 171.197 1377.93 173.353 1382.97 174.764L1384.05 170.912C1379.32 169.588 1374.28 167.545 1368.9 164.763L1367.06 168.315ZM1382.98 174.767C1388.03 176.152 1392.49 177.058 1396.34 177.464L1396.76 173.486C1393.19 173.11 1388.95 172.258 1384.04 170.909L1382.98 174.767ZM1396.4 177.469C1400.19 177.76 1402.76 177.914 1404.02 177.914V173.914C1402.94 173.914 1400.53 173.775 1396.7 173.48L1396.4 177.469ZM1404.02 177.914H1470.96V173.914H1404.02V177.914ZM1472.96 175.914V3.94141H1468.96V175.914H1472.96ZM1470.96 5.94141H1509.05V1.94141H1470.96V5.94141ZM1507.05 3.94141V194.811H1511.05V3.94141H1507.05ZM1761.73 205.357L1759.92 204.524L1759.9 204.556L1759.89 204.588L1761.73 205.357ZM1736.98 215.611L1736.28 217.484L1736.29 217.489L1736.3 217.493L1736.98 215.611ZM1730.68 211.363L1732.13 209.986L1732.12 209.98L1730.68 211.363ZM1591.52 66.0508L1592.96 64.6675L1589.52 61.0707V66.0508H1591.52ZM1591.52 214V216H1593.52V214H1591.52ZM1553.43 214H1551.43V216H1553.43V214ZM1556.66 9.6543L1555.02 8.51068L1555.01 8.52124L1556.66 9.6543ZM1565.15 2.47656L1564.4 0.623077L1564.36 0.639481L1564.32 0.657608L1565.15 2.47656ZM1576.29 1.45117L1575.88 3.41037L1575.91 3.41534L1575.93 3.41971L1576.29 1.45117ZM1586.1 6.72461L1587.54 5.34056L1587.54 5.33542L1586.1 6.72461ZM1725.26 151.891L1723.82 153.275L1727.26 156.867V151.891H1725.26ZM1725.26 3.94141V1.94141H1723.26V3.94141H1725.26ZM1763.35 3.94141H1765.35V1.94141H1763.35V3.94141ZM1761.35 197.74C1761.35 200.205 1760.86 202.458 1759.92 204.524L1763.55 206.191C1764.75 203.57 1765.35 200.744 1765.35 197.74H1761.35ZM1759.89 204.588C1759.01 206.696 1757.79 208.526 1756.22 210.096L1759.05 212.924C1760.99 210.977 1762.51 208.706 1763.58 206.127L1759.89 204.588ZM1756.22 210.096C1754.76 211.556 1752.98 212.734 1750.86 213.619L1752.4 217.311C1754.96 216.242 1757.19 214.783 1759.05 212.924L1756.22 210.096ZM1750.86 213.619C1748.77 214.49 1746.54 214.93 1744.16 214.93V218.93C1747.05 218.93 1749.8 218.393 1752.4 217.311L1750.86 213.619ZM1744.16 214.93C1742.07 214.93 1739.9 214.539 1737.66 213.73L1736.3 217.493C1738.94 218.442 1741.56 218.93 1744.16 218.93V214.93ZM1737.68 213.739C1735.64 212.974 1733.79 211.736 1732.13 209.986L1729.23 212.741C1731.28 214.896 1733.63 216.491 1736.28 217.484L1737.68 213.739ZM1732.12 209.98L1592.96 64.6675L1590.08 67.4341L1729.24 212.747L1732.12 209.98ZM1589.52 66.0508V214H1593.52V66.0508H1589.52ZM1591.52 212H1553.43V216H1591.52V212ZM1555.43 214V20.2012H1551.43V214H1555.43ZM1555.43 20.2012C1555.43 16.6866 1556.39 13.5685 1558.3 10.7874L1555.01 8.52124C1552.62 11.9901 1551.43 15.9033 1551.43 20.2012H1555.43ZM1558.3 10.7979C1560.35 7.85481 1562.91 5.70244 1565.98 4.29552L1564.32 0.657608C1560.56 2.37569 1557.46 5.00847 1555.02 8.51071L1558.3 10.7979ZM1565.9 4.33005C1569.15 3.01295 1572.46 2.70863 1575.88 3.41037L1576.69 -0.508026C1572.49 -1.36879 1568.38 -0.989517 1564.4 0.623077L1565.9 4.33005ZM1575.93 3.41971C1579.32 4.02768 1582.21 5.57852 1584.66 8.1138L1587.54 5.33542C1584.52 2.20663 1580.87 0.241852 1576.64 -0.517365L1575.93 3.41971ZM1584.66 8.10864L1723.82 153.275L1726.7 150.507L1587.54 5.34058L1584.66 8.10864ZM1727.26 151.891V3.94141H1723.26V151.891H1727.26ZM1725.26 5.94141H1763.35V1.94141H1725.26V5.94141ZM1761.35 3.94141V197.74H1765.35V3.94141H1761.35Z" fill="black" mask="url(#path-1-outside-1_1_3)"/>
</g>
<defs>
<filter id="filter0_d_1_3" x="0.214844" y="0.279297" width="1767.13" height="224.65" filterUnits="userSpaceOnUse" color-interpolation-filters="sRGB">
<feFlood flood-opacity="0" result="BackgroundImageFix"/>
<feColorMatrix in="SourceAlpha" type="matrix" values="0 0 0 0 0 0 0 0 0 0 0 0 0 0 0 0 0 0 127 0" result="hardAlpha"/>
<feOffset dy="4"/>
<feGaussianBlur stdDeviation="2"/>
<feComposite in2="hardAlpha" operator="out"/>
<feColorMatrix type="matrix" values="0 0 0 0 0 0 0 0 0 0 0 0 0 0 0 0 0 0 0.25 0"/>
<feBlend mode="normal" in2="BackgroundImageFix" result="effect1_dropShadow_1_3"/>
<feBlend mode="normal" in="SourceGraphic" in2="effect1_dropShadow_1_3" result="shape"/>
</filter>
</defs>
</svg>
